<?xml version="1.0" encoding="UTF-8"?> <svg xmlns="http://www.w3.org/2000/svg" width="264" height="53" viewBox="0 0 264 53" fill="none"> <path d="M48.2419 2.66276C48.2419 4.99761 44.2434 11.1781 36.2463 21.2042C37.9729 23.4475 39.6996 25.6907 41.4262 27.934C43.2437 30.5436 44.1525 32.6724 44.1525 34.3205C44.1525 38.7155 41.6988 42.6756 36.7915 46.2008C31.8842 49.6801 26.0681 51.4198 19.3433 51.4198C14.3451 51.4198 10.0511 50.756 6.46153 49.4283C2.55385 48.0091 0.600006 46.1779 0.600006 43.9346C0.600006 43.3852 1.00895 42.8587 1.82684 42.3551C2.64472 41.8515 3.59893 41.5997 4.68944 41.5997C6.41609 41.5997 8.55169 42.0804 11.0962 43.0419C13.459 43.9575 15.2538 44.896 16.4806 45.8574C16.6624 45.9947 16.7533 46.155 16.7533 46.3381C16.7533 46.6128 16.617 46.7501 16.3443 46.7501C16.1626 46.7501 15.9581 46.6815 15.7309 46.5441C13.5499 45.2622 12.164 44.484 11.5733 44.2093C9.21054 43.1105 6.84775 42.5612 4.48497 42.5612C3.12182 42.5612 2.44025 43.1105 2.44025 44.2093C2.44025 46.0405 4.37137 47.5742 8.23362 48.8103C11.5506 49.8633 14.9585 50.3898 18.4572 50.3898C24.7277 50.3898 30.0212 49.085 34.3378 46.4755C39.1543 43.5455 41.5625 39.5167 41.5625 34.3892C41.5625 32.6495 40.8128 30.7038 39.3133 28.5521C38.7681 27.7738 37.2459 25.9654 34.7468 23.127C29.794 29.3075 24.296 35.8542 18.2527 42.7672C17.8892 42.7672 17.7075 42.584 17.7075 42.2178C17.7075 42.0347 17.9119 41.6913 18.3209 41.1877C21.9105 36.8385 27.1132 30.5207 33.9289 22.2343C31.9296 19.8079 30.93 17.8621 30.93 16.3971C30.93 13.0551 32.4749 9.52995 35.5647 5.82167C38.8362 1.97604 42.1532 0.0532227 45.5156 0.0532227C47.3332 0.0532227 48.2419 0.923068 48.2419 2.66276ZM45.9927 3.76151C45.9927 2.43385 45.3112 1.77002 43.948 1.77002C41.767 1.77002 39.4496 3.25792 36.996 6.2337C34.5423 9.20948 33.3155 12.025 33.3155 14.6803C33.3155 16.0996 34.0652 17.9308 35.5647 20.1741C42.5167 11.5672 45.9927 6.09635 45.9927 3.76151Z" fill="black"></path> <path d="M67.1316 44.4153C67.1316 44.9647 65.723 46.0176 62.9059 47.5742C59.9524 49.2223 57.8395 50.0464 56.5672 50.0464C54.2044 50.0464 53.0231 48.7874 53.0231 46.2694C53.0231 45.5827 53.3866 44.8044 54.1136 43.9346C54.1136 43.8888 54.0908 43.8659 54.0454 43.8659C54.0908 43.8659 52.864 44.8273 50.3649 46.7501C47.8658 48.6272 46.071 49.5657 44.9805 49.5657C43.9354 49.5657 43.4129 49.1308 43.4129 48.2609C43.4129 46.155 45.1622 43.7057 48.661 40.913C51.978 38.2119 54.5679 36.8614 56.4309 36.8614C56.7035 36.9072 56.9989 37.0674 57.317 37.3421C57.6805 37.571 57.8622 37.7541 57.8622 37.8915C57.8622 37.9372 57.8395 37.983 57.7941 38.0288C55.2495 38.0288 52.0007 40.0203 48.0476 44.0033C46.7753 45.2851 46.1392 46.361 46.1392 47.2308C46.1392 47.5513 46.2982 47.7115 46.6163 47.7115C47.6159 47.7115 49.5243 46.5441 52.3415 44.2093C54.6134 42.2865 56.2264 40.7528 57.1806 39.6083C57.635 39.0589 57.9531 38.7842 58.1348 38.7842C58.5892 38.7842 58.8164 39.1047 58.8164 39.7456C58.8164 39.9745 58.5211 40.501 57.9304 41.3251C55.9765 44.0262 54.9996 45.743 54.9996 46.4755C54.9996 47.7573 55.7039 48.3983 57.1125 48.3983C59.4298 48.3983 62.5651 47.0477 66.5182 44.3466C66.6545 44.2093 66.7908 44.1406 66.9271 44.1406C67.0634 44.1406 67.1316 44.2322 67.1316 44.4153Z" fill="black"></path> <path d="M90.9542 40.089C90.9542 40.7757 90.3407 41.3937 89.1139 41.9431C87.9325 42.4925 86.8193 42.7901 85.7742 42.8358C84.4565 42.8816 83.4341 42.6069 82.7071 42.0118C81.0259 43.843 79.3674 45.6743 77.7317 47.5055C75.278 50.0693 73.2106 51.3512 71.5293 51.3512C71.0295 51.3512 70.5979 51.1223 70.2344 50.6644C69.9163 50.2524 69.7573 49.8175 69.7573 49.3597C69.7573 48.444 70.5297 46.7273 72.0746 44.2093C73.6195 41.6913 74.392 40.0203 74.392 39.1962L74.3238 39.0589C74.2784 39.0589 73.6195 39.5854 72.3472 40.6383C70.8023 41.966 68.2805 43.8888 64.7818 46.4068C64.5546 46.3152 64.441 46.2008 64.441 46.0634C64.441 45.743 64.7818 45.3996 65.4633 45.0333C67.8716 43.431 70.0299 41.6913 71.9383 39.8143C73.4377 38.3493 74.4601 37.6168 75.0054 37.6168C75.9596 37.6168 76.4367 38.189 76.4367 39.3336C76.4367 40.6154 75.6869 42.378 74.1875 44.6213C72.688 46.8188 71.9383 48.1694 71.9383 48.673C71.9383 49.085 72.1882 49.291 72.688 49.291C73.824 49.291 75.4825 48.1465 77.6635 45.8574C79.1175 44.1635 80.5715 42.4696 82.0256 40.7757C82.0256 39.7227 82.3436 38.4866 82.9798 37.0674C83.6613 35.6482 84.3202 34.847 84.9563 34.6639C85.4561 34.6181 86.0014 34.5952 86.5921 34.5952C86.7739 34.641 86.8647 34.7097 86.8647 34.8012C86.8647 34.847 86.3876 35.6482 85.4334 37.2047C84.5247 38.7155 84.0703 39.7914 84.0703 40.4323C84.252 41.2564 84.9109 41.6684 86.0468 41.6684C87.2282 41.6684 88.6141 41.0275 90.2044 39.7456C90.4316 39.5167 90.5907 39.4022 90.6815 39.4022C90.8633 39.4022 90.9542 39.6311 90.9542 40.089Z" fill="black"></path> <path d="M107.011 44.4153C107.011 44.7358 106.08 45.4912 104.217 46.6815C99.6274 49.6115 96.3331 51.0765 94.3338 51.0765C91.3803 51.0765 89.9036 49.3368 89.9036 45.8574C89.9036 43.2937 91.1304 40.7299 93.5841 38.1661C96.0832 35.5566 98.446 34.2518 100.672 34.2518C101.354 34.2518 101.695 34.5723 101.695 35.2133C101.695 36.7698 100.354 38.9673 97.6735 41.8058C95.5379 44.049 93.7885 45.5827 92.4254 46.4068C92.5617 48.4212 93.5159 49.4283 95.288 49.4283C96.9692 49.4283 99.7864 48.2838 103.74 45.9947C104.058 45.8116 104.944 45.2623 106.398 44.3466C106.534 44.2093 106.67 44.1406 106.807 44.1406C106.943 44.1406 107.011 44.2322 107.011 44.4153ZM99.5819 36.518C99.5819 35.9686 99.4229 35.694 99.1048 35.694C97.9689 35.694 96.583 36.8385 94.9472 39.1276C93.3114 41.4166 92.4708 43.4768 92.4254 45.308C93.2887 45.0333 94.6519 43.843 96.5148 41.7371C98.5596 39.448 99.5819 37.7083 99.5819 36.518Z" fill="black"></path> <path d="M140.693 20.4488C140.693 20.6777 140.602 20.9524 140.42 21.2729C138.33 24.8896 135.468 30.3604 131.833 37.6854C134.559 37.6854 136.558 37.5481 137.83 37.2734C137.876 37.4108 137.899 37.5939 137.899 37.8228C137.899 38.0517 137.717 38.2119 137.353 38.3035C136.445 38.4866 134.468 38.5782 131.424 38.5782C128.97 43.5226 126.766 47.6887 124.812 51.0765C124.403 51.7632 124.04 52.1066 123.722 52.1066C123.222 52.1066 122.972 51.809 122.972 51.2138C122.972 50.8933 123.108 50.4126 123.381 49.7717C124.426 47.2995 125.199 43.7057 125.698 38.9902C121.927 42.5154 118.519 45.1936 115.475 47.0248C115.248 46.9333 115.134 46.8188 115.134 46.6815C115.134 46.361 115.475 46.0176 116.156 45.6514C119.019 43.8201 122.177 41.2335 125.63 37.8915C121.995 37.0216 119.042 35.6253 116.77 33.7025C113.816 31.2303 112.34 28.1629 112.34 24.5004C112.34 23.127 112.908 21.8451 114.043 20.6548C115.134 19.4645 116.384 18.8693 117.792 18.8693C120.337 18.8693 122.45 20.2657 124.131 23.0583C125.903 26.0341 126.789 29.9942 126.789 34.9386C126.789 35.7626 126.766 36.3807 126.721 36.7927C130.174 33.3133 133.218 29.8568 135.854 26.4232C136.944 24.592 138.262 22.3716 139.807 19.7621C139.943 19.7621 140.125 19.8536 140.352 20.0368C140.579 20.2199 140.693 20.3572 140.693 20.4488ZM133.128 31.2303L131.969 32.5351C130.424 34.2747 128.925 35.8771 127.47 37.3421C128.47 37.571 129.265 37.6854 129.856 37.6854L133.128 31.2303ZM125.971 34.9386C125.971 31.7797 125.312 28.7123 123.994 25.7365C122.359 22.1198 120.223 20.3114 117.588 20.3114C115.316 20.3114 114.18 21.5704 114.18 24.0884C114.18 27.2015 115.475 29.9713 118.065 32.3977C120.155 34.4121 122.768 35.9229 125.903 36.9301C125.903 36.6554 125.926 36.312 125.971 35.9C125.971 35.4422 125.971 35.1217 125.971 34.9386ZM129.447 38.5095C128.584 38.4179 127.652 38.2806 126.653 38.0975C126.516 40.1119 126.175 42.4238 125.63 45.0333L125.221 46.9562L126.107 45.2394L129.447 38.5095Z" fill="black"></path> <path d="M166.582 3.69284C166.582 8.36253 164.469 13.7189 160.243 19.7621C157.062 24.3402 153.041 28.781 148.179 33.0844C143.999 36.8385 141.454 38.7155 140.545 38.7155C137.865 44.3008 136.524 47.3682 136.524 47.9176C136.524 48.1007 136.57 48.1923 136.661 48.1923C136.797 48.1923 136.979 48.1007 137.206 47.9176C137.751 47.5055 139.637 45.949 142.863 43.2479C146.134 40.501 147.884 39.0131 148.111 38.7842C148.52 38.3722 148.906 38.1661 149.27 38.1661C149.769 38.1661 150.019 38.4637 150.019 39.0589C150.019 39.242 149.838 39.6311 149.474 40.2263C147.975 42.2865 147.225 44.1864 147.225 45.9261C147.225 47.7115 147.861 48.6043 149.133 48.6043C150.315 48.6043 152.677 47.3911 156.222 44.9647C156.449 44.7815 156.767 44.5755 157.176 44.3466C157.312 44.2093 157.448 44.1406 157.585 44.1406C157.721 44.1406 157.789 44.2322 157.789 44.4153C157.789 44.5984 157.448 44.9647 156.767 45.514C152.814 48.7187 149.951 50.3211 148.179 50.3211C147.179 50.3211 146.362 50.0006 145.725 49.3597C145.135 48.673 144.839 47.8718 144.839 46.9562C144.839 46.1779 145.021 45.2394 145.385 44.1406C145.794 42.9961 145.998 42.2865 145.998 42.0118C145.998 41.966 145.975 41.9202 145.93 41.8744C145.93 41.8744 143.999 43.5226 140.137 46.8188C136.274 50.0693 134.116 51.6945 133.662 51.6945C133.344 51.6945 133.184 51.3741 133.184 50.7331C137.456 41.1648 141.432 32.9471 145.112 26.0799C153.836 9.69019 160.266 1.49534 164.401 1.49534C165.855 1.49534 166.582 2.22784 166.582 3.69284ZM164.605 4.72292C164.605 3.66995 164.196 3.14346 163.378 3.14346C159.289 4.19643 151.905 15.6189 141.227 37.4108C142.499 36.9987 144.976 34.9615 148.656 31.299C152.882 27.0871 156.403 22.8294 159.221 18.526C162.81 13.1238 164.605 8.52276 164.605 4.72292Z" fill="black"></path> <path d="M173.771 44.4153C173.771 44.7358 172.839 45.4912 170.976 46.6815C166.387 49.6115 163.093 51.0765 161.093 51.0765C158.14 51.0765 156.663 49.3368 156.663 45.8574C156.663 43.2937 157.89 40.7299 160.344 38.1661C162.843 35.5566 165.205 34.2518 167.432 34.2518C168.114 34.2518 168.454 34.5723 168.454 35.2133C168.454 36.7698 167.114 38.9673 164.433 41.8058C162.297 44.049 160.548 45.5827 159.185 46.4068C159.321 48.4212 160.275 49.4283 162.047 49.4283C163.729 49.4283 166.546 48.2838 170.499 45.9947C170.817 45.8116 171.703 45.2623 173.157 44.3466C173.293 44.2093 173.43 44.1406 173.566 44.1406C173.702 44.1406 173.771 44.2322 173.771 44.4153ZM166.341 36.518C166.341 35.9686 166.182 35.694 165.864 35.694C164.728 35.694 163.342 36.8385 161.707 39.1276C160.071 41.4166 159.23 43.4768 159.185 45.308C160.048 45.0333 161.411 43.843 163.274 41.7371C165.319 39.448 166.341 37.7083 166.341 36.518Z" fill="black"></path> <path d="M223.538 2.38807C223.538 6.18792 220.198 12.8262 213.518 22.3029C207.702 30.4978 202.182 37.159 196.956 42.2865C196.638 43.2479 196.479 44.5984 196.479 46.3381C196.479 47.0248 196.706 47.6887 197.161 48.3296C197.615 48.9248 198.092 49.2223 198.592 49.2223C199.955 49.2223 201.75 48.5356 203.976 47.1622C205.294 46.2465 206.635 45.308 207.998 44.3466C208.134 44.2093 208.27 44.1406 208.407 44.1406C208.543 44.1406 208.611 44.2322 208.611 44.4153C208.611 44.9647 207.203 46.155 204.385 47.9862C201.432 49.909 199.319 50.8705 198.047 50.8705C195.639 50.8705 194.434 48.8332 194.434 44.7587C194.434 44.5297 194.389 44.4153 194.298 44.4153C192.98 45.4225 191.663 46.4526 190.345 47.5055C188.573 48.7874 187.142 49.4283 186.051 49.4283C185.006 49.4283 184.483 48.8103 184.483 47.5742C184.483 45.102 185.824 42.5612 188.505 39.9516C191.186 37.2963 193.889 35.9686 196.615 35.9686C198.069 31.8025 201.568 25.3474 207.112 16.6032C213.882 5.93612 218.948 0.602599 222.311 0.602599C223.129 0.602599 223.538 1.19776 223.538 2.38807ZM221.016 3.21213C221.016 2.84588 220.879 2.61698 220.607 2.52541C216.654 4.72292 211.996 10.6058 206.635 20.1741C202.954 26.8124 200.16 32.6495 198.251 37.6854C198.069 38.2806 197.751 39.3794 197.297 40.9817C202.477 35.7626 207.543 29.4219 212.496 21.9596C218.176 13.3985 221.016 7.14932 221.016 3.21213ZM196.207 37.2734C196.207 36.9987 196.116 36.8614 195.934 36.8614C194.116 37.365 192.14 38.83 190.004 41.2564C188.05 43.4997 186.96 45.308 186.733 46.6815C186.778 47.414 187.142 47.7802 187.823 47.7802C188.323 47.7802 189.55 47.1164 191.504 45.7887C192.503 45.0562 193.503 44.3237 194.503 43.5912C194.73 42.584 195.298 40.4781 196.207 37.2734Z" fill="black"></path> <path d="M229.937 44.4153C229.937 44.9647 228.528 46.0176 225.711 47.5742C222.758 49.2223 220.645 50.0464 219.373 50.0464C217.01 50.0464 215.828 48.7874 215.828 46.2694C215.828 45.5827 216.192 44.8044 216.919 43.9346C216.919 43.8888 216.896 43.8659 216.851 43.8659C216.896 43.8659 215.669 44.8273 213.17 46.7501C210.671 48.6272 208.876 49.5657 207.786 49.5657C206.741 49.5657 206.218 49.1308 206.218 48.2609C206.218 46.155 207.968 43.7057 211.466 40.913C214.783 38.2119 217.373 36.8614 219.236 36.8614C219.509 36.9072 219.804 37.0674 220.122 37.3421C220.486 37.571 220.668 37.7541 220.668 37.8915C220.668 37.9372 220.645 37.983 220.599 38.0288C218.055 38.0288 214.806 40.0203 210.853 44.0033C209.581 45.2851 208.944 46.361 208.944 47.2308C208.944 47.5513 209.104 47.7115 209.422 47.7115C210.421 47.7115 212.33 46.5441 215.147 44.2093C217.419 42.2865 219.032 40.7528 219.986 39.6083C220.44 39.0589 220.758 38.7842 220.94 38.7842C221.395 38.7842 221.622 39.1047 221.622 39.7456C221.622 39.9745 221.326 40.501 220.736 41.3251C218.782 44.0262 217.805 45.743 217.805 46.4755C217.805 47.7573 218.509 48.3983 219.918 48.3983C222.235 48.3983 225.37 47.0477 229.324 44.3466C229.46 44.2093 229.596 44.1406 229.732 44.1406C229.869 44.1406 229.937 44.2322 229.937 44.4153Z" fill="black"></path> <path d="M251.715 20.4488C251.715 20.6777 251.624 20.9524 251.442 21.2729C249.352 24.8896 246.489 30.3604 242.854 37.6854C245.581 37.6854 247.58 37.5481 248.852 37.2734C248.898 37.4108 248.92 37.5939 248.92 37.8228C248.92 38.0517 248.739 38.2119 248.375 38.3035C247.466 38.4866 245.49 38.5782 242.445 38.5782C239.992 43.5226 237.788 47.6887 235.834 51.0765C235.425 51.7632 235.062 52.1066 234.744 52.1066C234.244 52.1066 233.994 51.809 233.994 51.2138C233.994 50.8933 234.13 50.4126 234.403 49.7717C235.448 47.2995 236.22 43.7057 236.72 38.9902C232.949 42.5154 229.541 45.1936 226.497 47.0248C226.269 46.9333 226.156 46.8188 226.156 46.6815C226.156 46.361 226.497 46.0176 227.178 45.6514C230.041 43.8201 233.199 41.2335 236.652 37.8915C233.017 37.0216 230.063 35.6253 227.792 33.7025C224.838 31.2303 223.361 28.1629 223.361 24.5004C223.361 23.127 223.929 21.8451 225.065 20.6548C226.156 19.4645 227.405 18.8693 228.814 18.8693C231.358 18.8693 233.471 20.2657 235.153 23.0583C236.925 26.0341 237.811 29.9942 237.811 34.9386C237.811 35.7626 237.788 36.3807 237.743 36.7927C241.196 33.3133 244.24 29.8568 246.876 26.4232C247.966 24.592 249.284 22.3716 250.829 19.7621C250.965 19.7621 251.147 19.8536 251.374 20.0368C251.601 20.2199 251.715 20.3572 251.715 20.4488ZM244.149 31.2303L242.991 32.5351C241.446 34.2747 239.946 35.8771 238.492 37.3421C239.492 37.571 240.287 37.6854 240.878 37.6854L244.149 31.2303ZM236.993 34.9386C236.993 31.7797 236.334 28.7123 235.016 25.7365C233.38 22.1198 231.245 20.3114 228.609 20.3114C226.338 20.3114 225.202 21.5704 225.202 24.0884C225.202 27.2015 226.497 29.9713 229.087 32.3977C231.177 34.4121 233.789 35.9229 236.925 36.9301C236.925 36.6554 236.947 36.312 236.993 35.9C236.993 35.4422 236.993 35.1217 236.993 34.9386ZM240.469 38.5095C239.605 38.4179 238.674 38.2806 237.674 38.0975C237.538 40.1119 237.197 42.4238 236.652 45.0333L236.243 46.9562L237.129 45.2394L240.469 38.5095Z" fill="black"></path> <path d="M263.427 44.4153C263.427 44.7358 262.495 45.4912 260.632 46.6815C256.043 49.6115 252.749 51.0765 250.749 51.0765C247.796 51.0765 246.319 49.3368 246.319 45.8574C246.319 43.2937 247.546 40.7299 250 38.1661C252.499 35.5566 254.862 34.2518 257.088 34.2518C257.77 34.2518 258.11 34.5723 258.11 35.2133C258.11 36.7698 256.77 38.9673 254.089 41.8058C251.953 44.049 250.204 45.5827 248.841 46.4068C248.977 48.4212 249.931 49.4283 251.704 49.4283C253.385 49.4283 256.202 48.2838 260.155 45.9947C260.473 45.8116 261.359 45.2623 262.813 44.3466C262.95 44.2093 263.086 44.1406 263.222 44.1406C263.358 44.1406 263.427 44.2322 263.427 44.4153ZM255.997 36.518C255.997 35.9686 255.838 35.694 255.52 35.694C254.384 35.694 252.999 36.8385 251.363 39.1276C249.727 41.4166 248.886 43.4768 248.841 45.308C249.704 45.0333 251.067 43.843 252.93 41.7371C254.975 39.448 255.997 37.7083 255.997 36.518Z" fill="black"></path> </svg> 